<svg width="20" height="20" viewBox="0 0 20 20" fill="none" xmlns="http://www.w3.org/2000/svg">
<path d="M1.25 10C1.25 14.829 5.17097 18.75 10 18.75C14.829 18.75 18.75 14.829 18.75 10C18.75 5.17097 14.829 1.25 10 1.25C5.17097 1.25 1.25 5.17097 1.25 10Z" stroke="#1E88E5" stroke-width="1.94444"/>
<path d="M7.11075 3.83712L6.87353 3.95476L6.64214 4.08018L6.41658 4.21434L6.19589 4.35726L5.982 4.50795L5.77395 4.6674L5.5727 4.83365L5.37728 5.00768L5.18867 5.18851L5.00783 5.37712L4.83381 5.57254L4.66756 5.77379L4.50811 5.98184L4.35742 6.19573L4.2145 6.41643L4.08033 6.64198L3.95492 6.87337L3.83728 7.11059L3.72936 7.3517L3.63117 7.59865L3.54172 7.84948L3.462 8.10518L3.39297 8.36573L3.3327 8.6292L3.28408 8.89656L3.2452 9.16782L3.217 9.44198L3.20047 9.72004L3.19464 10L3.20047 10.28L3.217 10.5581L3.2452 10.8323L3.28408 11.1035L3.3327 11.3709L3.39297 11.6343L3.462 11.8949L3.54172 12.1506L3.63117 12.4014L3.72936 12.6484L3.83728 12.8895L3.95492 13.1267L4.08033 13.3581L4.2145 13.5836L4.35742 13.8043L4.50811 14.0182L4.66756 14.2263L4.83381 14.4275L5.00783 14.623L5.18867 14.8116L5.37728 14.9924L5.5727 15.1664L5.77395 15.3327L5.982 15.4921L6.19589 15.6428L6.41658 15.7857L6.64214 15.9199L6.87353 16.0453L7.11075 16.163L7.35186 16.2709L7.59881 16.3691L7.84964 16.4585L8.10533 16.5382L8.36589 16.6073L8.62936 16.6675L8.89672 16.7161L9.16797 16.755L9.44214 16.7832L9.7202 16.7998L10.0002 16.8056L10.2802 16.7998L10.5583 16.7832L10.8324 16.755L11.1037 16.7161L11.371 16.6675L11.6345 16.6073L11.8951 16.5382L12.1508 16.4585L12.4016 16.3691L12.6485 16.2709L12.8896 16.163L13.1269 16.0453L13.3583 15.9199L13.5838 15.7857L13.8045 15.6428L14.0184 15.4921L14.2264 15.3327L14.4277 15.1664L14.6231 14.9924L14.8117 14.8116L14.9926 14.623L15.1666 14.4275L15.3328 14.2263L15.4923 14.0182L15.643 13.8043L15.7859 13.5836L15.9201 13.3581L16.0455 13.1267L16.1631 12.8895L16.271 12.6484L16.3692 12.4014L16.4587 12.1506L16.5384 11.8949L16.6064 11.6411H16.5627L10.0002 10L7.8127 3.5649V3.55518L7.59881 3.63101L7.35186 3.7292L7.11075 3.83712Z" fill="#1E88E5"/>
</svg>
