<?xml version="1.0" encoding="UTF-8"?>
<svg width="180px" height="180px" viewBox="0 0 180 180" version="1.1" xmlns="http://www.w3.org/2000/svg" xmlns:xlink="http://www.w3.org/1999/xlink">
    <!-- Generator: Sketch 63.1 (92452) - https://sketch.com -->
    <title>tockler_icon</title>
    <desc>Created with Sketch.</desc>
    <defs>
        <path d="M210,120 C210,169.67 169.67,210 120,210 C70.33,210 30,169.67 30,120 C30,104.917806 33.71851,90.6967793 40.2879037,78.2045463 C120,120 57.5286956,85.8126356 58.851086,83.7333646 C66.7300229,71.3448561 83.7242753,67.3712982 92.799931,57.099558 C94.931382,54.6872022 120.928965,120.433184 84.7992498,37.1556641 C95.6140635,32.5493993 107.511825,30 120,30 C169.67,30 210,70.33 210,120 Z" id="path-1"></path>
    </defs>
    <g id="Page-1" stroke="none" stroke-width="1" fill="none" fill-rule="evenodd">
        <g id="tockler_icon" transform="translate(-30.000000, -30.000000)">
            <g id="g21">
                <g id="g19-Clipped">
                    <mask id="mask-2" fill="white">
                        <use xlink:href="#path-1"></use>
                    </mask>
                    <g id="aPcyKIjz" transform="translate(120.000000, 120.000000) rotate(-25.000000) translate(-120.000000, -120.000000) "></g>
                    <g id="g19" mask="url(#mask-2)" fill-rule="nonzero" stroke="#BCBCBC" stroke-width="20">
                        <g id="use17">
                            <path d="M210,120 C210,169.67 169.67,210 120,210 C70.33,210 30,169.67 30,120 C30,100.358052 36.3067991,82.1766925 47.0039683,67.3723494 C56.8663621,53.7232935 70.4606393,42.9447549 86.2849272,36.5386063 C96.7000043,32.3222692 108.081096,30 120,30 C169.67,30 210,70.33 210,120 Z" id="aPcyKIjz" transform="translate(120.000000, 120.000000) rotate(-25.000000) translate(-120.000000, -120.000000) "></path>
                        </g>
                    </g>
                </g>
            </g>
            <g id="g25" transform="translate(52.000000, 53.000000)" fill="#1E88E5" fill-rule="nonzero">
                <g id="use23">
                    <polygon id="c8gweQHD3" points="97.72 3.61 100.16 4.82 102.54 6.11 104.86 7.49 107.13 8.96 109.33 10.51 111.47 12.15 113.54 13.86 115.55 15.65 117.49 17.51 119.35 19.45 121.14 21.46 122.85 23.53 124.49 25.67 126.04 27.87 127.51 30.14 128.89 32.46 130.18 34.84 131.39 37.28 132.5 39.76 133.51 42.3 134.43 44.88 135.25 47.51 135.96 50.19 136.58 52.9 137.08 55.65 137.48 58.44 137.77 61.26 137.94 64.12 138 67 137.94 69.88 137.77 72.74 137.48 75.56 137.08 78.35 136.58 81.1 135.96 83.81 135.25 86.49 134.43 89.12 133.51 91.7 132.5 94.24 131.39 96.72 130.18 99.16 128.89 101.54 127.51 103.86 126.04 106.13 124.49 108.33 122.85 110.47 121.14 112.54 119.35 114.55 117.49 116.49 115.55 118.35 113.54 120.14 111.47 121.85 109.33 123.49 107.13 125.04 104.86 126.51 102.54 127.89 100.16 129.18 97.72 130.39 95.24 131.5 92.7 132.51 90.12 133.43 87.49 134.25 84.81 134.96 82.1 135.58 79.35 136.08 76.56 136.48 73.74 136.77 70.88 136.94 68 137 65.12 136.94 62.26 136.77 59.44 136.48 56.65 136.08 53.9 135.58 51.19 134.96 48.51 134.25 45.88 133.43 43.3 132.51 40.76 131.5 38.28 130.39 35.84 129.18 33.46 127.89 31.14 126.51 28.87 125.04 26.67 123.49 24.53 121.85 22.46 120.14 20.45 118.35 18.51 116.49 16.65 114.55 14.86 112.54 13.15 110.47 11.51 108.33 9.96 106.13 8.49 103.86 7.11 101.54 5.82 99.16 4.61 96.72 3.5 94.24 2.49 91.7 1.57 89.12 0.75 86.49 0.05 83.88 0.5 83.88 68 67 90.5 0.81 90.5 0.71 92.7 1.49 95.24 2.5 95.24 2.5"></polygon>
                </g>
            </g>
            <polygon id="Triangle" fill="#BCBCBC" transform="translate(48.500000, 71.500000) rotate(-137.000000) translate(-48.500000, -71.500000) " points="48.5 59 67 84 30 84"></polygon>
        </g>
    </g>
</svg>