<svg width="80" height="80" viewBox="0 0 80 80" fill="none" xmlns="http://www.w3.org/2000/svg">
<path d="M5 40C5 59.3161 20.6839 75 40 75C59.3161 75 75 59.3161 75 40C75 20.6839 59.3161 5 40 5C20.6839 5 5 20.6839 5 40Z" stroke="#1E88E5" stroke-width="7.77778"/>
<path d="M28.443 15.3485L27.4941 15.819L26.5686 16.3207L25.6663 16.8574L24.7836 17.429L23.928 18.0318L23.0958 18.6696L22.2908 19.3346L21.5091 20.0307L20.7547 20.754L20.0313 21.5085L19.3352 22.2901L18.6702 23.0951L18.0324 23.9274L17.4297 24.7829L16.858 25.6657L16.3213 26.5679L15.8197 27.4935L15.3491 28.4424L14.9174 29.4068L14.5247 30.3946L14.1669 31.3979L13.848 32.4207L13.5719 33.4629L13.3308 34.5168L13.1363 35.5863L12.9808 36.6713L12.868 37.7679L12.8019 38.8801L12.7786 40.0001L12.8019 41.1201L12.868 42.2324L12.9808 43.329L13.1363 44.414L13.3308 45.4835L13.5719 46.5374L13.848 47.5796L14.1669 48.6024L14.5247 49.6057L14.9174 50.5935L15.3491 51.5579L15.8197 52.5068L16.3213 53.4324L16.858 54.3346L17.4297 55.2174L18.0324 56.0729L18.6702 56.9051L19.3352 57.7101L20.0313 58.4918L20.7547 59.2463L21.5091 59.9696L22.2908 60.6657L23.0958 61.3307L23.928 61.9685L24.7836 62.5713L25.6663 63.1429L26.5686 63.6796L27.4941 64.1813L28.443 64.6518L29.4074 65.0835L30.3952 65.4763L31.3986 65.834L32.4213 66.1529L33.4636 66.429L34.5174 66.6701L35.5869 66.8646L36.6719 67.0201L37.7686 67.1329L38.8808 67.199L40.0008 67.2224L41.1208 67.199L42.233 67.1329L43.3297 67.0201L44.4147 66.8646L45.4841 66.6701L46.538 66.429L47.5802 66.1529L48.603 65.834L49.6063 65.4763L50.5941 65.0835L51.5586 64.6518L52.5074 64.1813L53.433 63.6796L54.3352 63.1429L55.218 62.5713L56.0736 61.9685L56.9058 61.3307L57.7108 60.6657L58.4924 59.9696L59.2469 59.2463L59.9702 58.4918L60.6663 57.7101L61.3313 56.9051L61.9691 56.0729L62.5719 55.2174L63.1436 54.3346L63.6802 53.4324L64.1819 52.5068L64.6524 51.5579L65.0841 50.5935L65.4769 49.6057L65.8347 48.6024L66.1536 47.5796L66.4258 46.5646H66.2508L40.0008 40.0001L31.2508 14.2596V14.2207L30.3952 14.524L29.4074 14.9168L28.443 15.3485Z" fill="#1E88E5"/>
</svg>
