<?xml version="1.0" encoding="UTF-8"?>
<svg width="141px" height="43px" viewBox="0 0 141 43" version="1.1" xmlns="http://www.w3.org/2000/svg" xmlns:xlink="http://www.w3.org/1999/xlink">
    <title>Tockler logo Github dark</title>
    <g id="Tockler-logo-Github-dark" stroke="none" stroke-width="1" fill="none" fill-rule="evenodd">
        <g id="Group" transform="translate(46.632324, 10.246094)" fill="#FFFFFF" fill-rule="nonzero">
            <g id="Tockler-logo-text">
                <path d="M9.49609375,19.9570312 C10.1985677,19.9570312 10.7190755,19.8089193 11.0576172,19.5126953 C11.3961589,19.2164714 11.5654297,18.742513 11.5654297,18.0908203 L11.5654297,18.0908203 L11.5654297,1.94238281 C12.2932943,1.96777344 12.9132487,2.01855469 13.425293,2.09472656 C13.9373372,2.17089844 14.3689779,2.25553385 14.7202148,2.34863281 C15.0714518,2.44173177 15.3549805,2.54329427 15.5708008,2.65332031 C15.7866211,2.76334635 15.9580078,2.86067708 16.0849609,2.9453125 C16.2119141,3.02994792 16.3113607,3.10188802 16.3833008,3.16113281 C16.4552409,3.2203776 16.5250651,3.25 16.5927734,3.25 C16.7027995,3.25 16.7958984,3.21191406 16.8720703,3.13574219 C16.9482422,3.05957031 17.0117188,2.96647135 17.0625,2.85644531 C17.1132812,2.74641927 17.1513672,2.63004557 17.1767578,2.50732422 C17.2021484,2.38460286 17.2148438,2.27669271 17.2148438,2.18359375 C17.2148438,2.06510417 17.2063802,1.94873047 17.1894531,1.83447266 C17.172526,1.72021484 17.1386719,1.61230469 17.0878906,1.51074219 C17.0371094,1.40917969 16.9609375,1.31819661 16.859375,1.23779297 C16.7578125,1.15738932 16.6223958,1.09602865 16.453125,1.05371094 C16.2753906,1.01139323 15.991862,0.973307292 15.6025391,0.939453125 C15.2132161,0.905598958 14.7498372,0.875976562 14.2124023,0.850585938 C13.6749674,0.825195312 13.0804036,0.806152344 12.4287109,0.793457031 C11.7770182,0.780761719 11.1083984,0.774414062 10.4228516,0.774414062 C8.98404948,0.774414062 7.63411458,0.888671875 6.37304688,1.1171875 C5.11197917,1.34570312 4.00748698,1.69905599 3.05957031,2.17724609 C2.11165365,2.6554362 1.36474609,3.25634766 0.818847656,3.97998047 C0.272949219,4.70361328 0,5.56054688 0,6.55078125 C0,6.92317708 0.0592447917,7.27441406 0.177734375,7.60449219 C0.296223958,7.93457031 0.469726562,8.22233073 0.698242188,8.46777344 C0.926757812,8.71321615 1.2039388,8.90576172 1.52978516,9.04541016 C1.85563151,9.18505859 2.22167969,9.25488281 2.62792969,9.25488281 C2.89029948,9.25488281 3.15478516,9.21468099 3.42138672,9.13427734 C3.68798828,9.0538737 3.92496745,8.93115234 4.13232422,8.76611328 C4.33968099,8.60107422 4.50895182,8.39583333 4.64013672,8.15039062 C4.77132161,7.90494792 4.83691406,7.61295573 4.83691406,7.27441406 C4.83691406,7.0374349 4.8030599,6.83642578 4.73535156,6.67138672 C4.66764323,6.50634766 4.5851237,6.37304688 4.48779297,6.27148438 C4.39046224,6.16992188 4.28466797,6.09586589 4.17041016,6.04931641 C4.05615234,6.00276693 3.94824219,5.97949219 3.84667969,5.97949219 C3.71972656,5.97949219 3.60758464,6.01546224 3.51025391,6.08740234 C3.41292318,6.15934245 3.30924479,6.23551432 3.19921875,6.31591797 C3.08919271,6.39632161 2.96647135,6.47249349 2.83105469,6.54443359 C2.69563802,6.6163737 2.52213542,6.65234375 2.31054688,6.65234375 C2.26822917,6.65234375 2.19840495,6.64176432 2.10107422,6.62060547 C2.00374349,6.59944661 1.90852865,6.54866536 1.81542969,6.46826172 C1.72233073,6.38785807 1.6398112,6.2672526 1.56787109,6.10644531 C1.49593099,5.94563802 1.45996094,5.72981771 1.45996094,5.45898438 C1.45996094,5.078125 1.56998698,4.73111979 1.79003906,4.41796875 C2.01009115,4.10481771 2.29361979,3.82340495 2.640625,3.57373047 C2.98763021,3.32405599 3.3811849,3.10400391 3.82128906,2.91357422 C4.26139323,2.72314453 4.7014974,2.56022135 5.14160156,2.42480469 C5.58170573,2.28938802 6.00276693,2.18570964 6.40478516,2.11376953 C6.80680339,2.04182943 7.14322917,1.99316406 7.4140625,1.96777344 L7.4140625,1.96777344 L7.4140625,18.0908203 C7.4140625,18.742513 7.58333333,19.2164714 7.921875,19.5126953 C8.26041667,19.8089193 8.78515625,19.9570312 9.49609375,19.9570312 Z M21.0107422,19.9570312 C21.789388,19.9570312 22.5341797,19.8068034 23.2451172,19.5063477 C23.9560547,19.2058919 24.5802409,18.7636719 25.1176758,18.1796875 C25.6551107,17.5957031 26.0846354,16.8763021 26.40625,16.0214844 C26.7278646,15.1666667 26.8886719,14.1848958 26.8886719,13.0761719 C26.8886719,11.9589844 26.7278646,10.9920247 26.40625,10.175293 C26.0846354,9.3585612 25.6551107,8.68359375 25.1176758,8.15039062 C24.5802409,7.6171875 23.9560547,7.22151693 23.2451172,6.96337891 C22.5341797,6.70524089 21.789388,6.57617188 21.0107422,6.57617188 C20.2320964,6.57617188 19.4873047,6.71582031 18.7763672,6.99511719 C18.0654297,7.27441406 17.4412435,7.69335938 16.9038086,8.25195312 C16.3663737,8.81054688 15.936849,9.50667318 15.6152344,10.340332 C15.2936198,11.1739909 15.1328125,12.1451823 15.1328125,13.2539062 C15.1328125,14.3626302 15.2936198,15.3359375 15.6152344,16.1738281 C15.936849,17.0117188 16.3663737,17.7099609 16.9038086,18.2685547 C17.4412435,18.8271484 18.0654297,19.2482096 18.7763672,19.5317383 C19.4873047,19.8152669 20.2320964,19.9570312 21.0107422,19.9570312 Z M21.0107422,18.6621094 C20.5960286,18.6621094 20.2617188,18.5076497 20.0078125,18.1987305 C19.7539062,17.8898112 19.5592448,17.4814453 19.4238281,16.9736328 C19.2884115,16.4658203 19.1995443,15.8881836 19.1572266,15.2407227 C19.1149089,14.5932617 19.09375,13.9309896 19.09375,13.2539062 C19.09375,12.5768229 19.1149089,11.9166667 19.1572266,11.2734375 C19.1995443,10.6302083 19.2884115,10.0568034 19.4238281,9.55322266 C19.5592448,9.04964193 19.7539062,8.64339193 20.0078125,8.33447266 C20.2617188,8.02555339 20.5960286,7.87109375 21.0107422,7.87109375 C21.4254557,7.87109375 21.7597656,8.01708984 22.0136719,8.30908203 C22.2675781,8.60107422 22.4622396,8.99251302 22.5976562,9.48339844 C22.7330729,9.97428385 22.824056,10.5349935 22.8706055,11.1655273 C22.9171549,11.7960612 22.9404297,12.4498698 22.9404297,13.1269531 C22.9404297,13.8040365 22.9171549,14.4726562 22.8706055,15.1328125 C22.824056,15.7929688 22.7330729,16.3854167 22.5976562,16.9101562 C22.4622396,17.4348958 22.2675781,17.8580729 22.0136719,18.1796875 C21.7597656,18.5013021 21.4254557,18.6621094 21.0107422,18.6621094 Z M34.2519531,19.9316406 C34.9882812,19.9316406 35.6442057,19.8406576 36.2197266,19.6586914 C36.7952474,19.4767253 37.2988281,19.2482096 37.7304688,18.9731445 C38.1621094,18.6980794 38.5302734,18.4039714 38.8349609,18.0908203 C39.1396484,17.7776693 39.3893229,17.4899089 39.5839844,17.2275391 L39.5839844,17.2275391 L39.2666016,16.9228516 C39.0634766,17.1005859 38.8540039,17.2677409 38.6381836,17.4243164 C38.4223633,17.5808919 38.1959635,17.7184245 37.9589844,17.8369141 C37.7220052,17.9554036 37.4702148,18.0485026 37.2036133,18.1162109 C36.9370117,18.1839193 36.655599,18.2177734 36.359375,18.2177734 C35.6992188,18.2177734 35.1236979,18.0760091 34.6328125,17.7924805 C34.1419271,17.5089518 33.7314453,17.1090495 33.4013672,16.5927734 C33.0712891,16.0764974 32.8237305,15.4523112 32.6586914,14.7202148 C32.4936523,13.9881185 32.4111328,13.1777344 32.4111328,12.2890625 C32.4111328,11.485026 32.5,10.7973633 32.6777344,10.2260742 C32.8554688,9.65478516 33.0797526,9.18717448 33.3505859,8.82324219 C33.6214193,8.4593099 33.921875,8.19270833 34.2519531,8.0234375 C34.5820312,7.85416667 34.8951823,7.76953125 35.1914062,7.76953125 C35.4707031,7.76953125 35.6653646,7.8203125 35.7753906,7.921875 C35.8854167,8.0234375 35.9510091,8.15885417 35.972168,8.328125 C35.9933268,8.49739583 35.9890951,8.68782552 35.9594727,8.89941406 C35.9298503,9.1110026 35.9150391,9.33105469 35.9150391,9.55957031 C35.9150391,9.73730469 35.9404297,9.90869141 35.9912109,10.0737305 C36.0419922,10.2387695 36.1223958,10.3889974 36.2324219,10.5244141 C36.3424479,10.6598307 36.4863281,10.7677409 36.6640625,10.8481445 C36.8417969,10.9285482 37.061849,10.96875 37.3242188,10.96875 C37.5696615,10.96875 37.7854818,10.9200846 37.9716797,10.8227539 C38.1578776,10.7254232 38.3123372,10.5942383 38.4350586,10.4291992 C38.5577799,10.2641602 38.6508789,10.0694987 38.7143555,9.84521484 C38.777832,9.62093099 38.8095703,9.38606771 38.8095703,9.140625 C38.8095703,8.81054688 38.7333984,8.49104818 38.5810547,8.18212891 C38.4287109,7.87320964 38.1980794,7.60026042 37.8891602,7.36328125 C37.5802409,7.12630208 37.1930339,6.9358724 36.7275391,6.79199219 C36.2620443,6.64811198 35.7161458,6.57617188 35.0898438,6.57617188 C34.6158854,6.57617188 34.1228841,6.64388021 33.6108398,6.77929688 C33.0987956,6.91471354 32.5973307,7.11572266 32.1064453,7.38232422 C31.6155599,7.64892578 31.1479492,7.98111979 30.7036133,8.37890625 C30.2592773,8.77669271 29.8699544,9.23795573 29.5356445,9.76269531 C29.2013346,10.2874349 28.936849,10.8735352 28.7421875,11.5209961 C28.547526,12.168457 28.4501953,12.8772786 28.4501953,13.6474609 C28.4501953,14.6376953 28.6131185,15.5200195 28.9389648,16.2944336 C29.2648112,17.0688477 29.6985677,17.726888 30.2402344,18.2685547 C30.781901,18.8102214 31.4018555,19.222819 32.1000977,19.5063477 C32.7983398,19.7898763 33.515625,19.9316406 34.2519531,19.9316406 Z M54.7421875,24.3876953 C55.2923177,24.3876953 55.766276,24.3623047 56.1640625,24.3115234 C56.561849,24.2607422 56.9130859,24.1930339 57.2177734,24.1083984 C57.5224609,24.023763 57.7932943,23.9243164 58.0302734,23.8100586 C58.2672526,23.6958008 58.5,23.5751953 58.7285156,23.4482422 L58.7285156,23.4482422 L58.4873047,23.0039062 C58.3857422,23.0546875 58.2884115,23.0970052 58.1953125,23.1308594 C58.1106771,23.1647135 58.0175781,23.1943359 57.9160156,23.2197266 C57.8144531,23.2451172 57.7128906,23.2578125 57.6113281,23.2578125 C57.0273438,23.2578125 56.413737,23.0716146 55.7705078,22.6992188 C55.1272786,22.3268229 54.456543,21.7491862 53.7583008,20.9663086 C53.0600586,20.183431 52.3343099,19.1847331 51.5810547,17.9702148 C50.8277995,16.7556966 50.0533854,15.3063151 49.2578125,13.6220703 C49.8502604,13.3173828 50.3411458,12.980957 50.7304688,12.612793 C51.1197917,12.2446289 51.4308268,11.8637695 51.6635742,11.4702148 C51.8963216,11.0766602 52.0613607,10.6788737 52.1586914,10.2768555 C52.2560221,9.87483724 52.3046875,9.48763021 52.3046875,9.11523438 C52.3046875,8.91210938 52.2644857,8.66666667 52.184082,8.37890625 C52.1036784,8.09114583 51.9640299,7.81396484 51.7651367,7.54736328 C51.5662435,7.28076172 51.3059896,7.05224609 50.984375,6.86181641 C50.6627604,6.67138672 50.2607422,6.57617188 49.7783203,6.57617188 C49.2366536,6.57617188 48.7373047,6.68196615 48.2802734,6.89355469 C47.8232422,7.10514323 47.4000651,7.37597656 47.0107422,7.70605469 C46.6214193,8.03613281 46.257487,8.40641276 45.9189453,8.81689453 C45.5804036,9.2273763 45.2630208,9.63151042 44.9667969,10.0292969 L44.9667969,10.0292969 L44.9667969,2.09472656 C44.9667969,1.90852865 44.9519857,1.69482422 44.9223633,1.45361328 C44.8927409,1.21240234 44.8059896,0.983886719 44.6621094,0.768066406 C44.5182292,0.552246094 44.2939453,0.370279948 43.9892578,0.222167969 C43.6845703,0.0740559896 43.2571615,0 42.7070312,0 C42.3515625,0 42.0130208,0.0380859375 41.6914062,0.114257812 C41.3697917,0.190429688 41.0672201,0.287760417 40.7836914,0.40625 C40.5001628,0.524739583 40.2399089,0.662272135 40.0029297,0.818847656 C39.7659505,0.975423177 39.5501302,1.13411458 39.3554688,1.29492188 L39.3554688,1.29492188 L39.609375,1.59960938 C39.7278646,1.50651042 39.8400065,1.4366862 39.9458008,1.39013672 C40.0515951,1.34358724 40.1764323,1.3203125 40.3203125,1.3203125 C40.5911458,1.3203125 40.7836914,1.41129557 40.8979492,1.59326172 C41.012207,1.77522786 41.0693359,1.98893229 41.0693359,2.234375 L41.0693359,2.234375 L41.0693359,18.6113281 C41.0693359,18.7044271 41.0841471,18.8271484 41.1137695,18.9794922 C41.1433919,19.1318359 41.2195638,19.2799479 41.3422852,19.4238281 C41.4650065,19.5677083 41.6533203,19.6925456 41.9072266,19.7983398 C42.1611328,19.9041341 42.5123698,19.9570312 42.9609375,19.9570312 C43.4095052,19.9570312 43.7670898,19.9083659 44.0336914,19.8110352 C44.300293,19.7137044 44.503418,19.5973307 44.6430664,19.4619141 C44.7827148,19.3264974 44.871582,19.1826172 44.909668,19.0302734 C44.9477539,18.8779297 44.9667969,18.7467448 44.9667969,18.6367188 L44.9667969,18.6367188 L44.9667969,12.0859375 C45.1191406,11.7135417 45.3138021,11.300944 45.5507812,10.8481445 C45.7877604,10.3953451 46.0522461,9.97216797 46.3442383,9.57861328 C46.6362305,9.18505859 46.9430339,8.85498047 47.2646484,8.58837891 C47.586263,8.32177734 47.9036458,8.18847656 48.2167969,8.18847656 C48.3776042,8.18847656 48.5024414,8.21809896 48.5913086,8.27734375 C48.6801758,8.33658854 48.7478841,8.40429688 48.7944336,8.48046875 C48.8409831,8.55664062 48.8684896,8.63492839 48.8769531,8.71533203 C48.8854167,8.79573568 48.8896484,8.85286458 48.8896484,8.88671875 C48.8896484,9.11523438 48.860026,9.39029948 48.8007812,9.71191406 C48.7415365,10.0335286 48.5934245,10.4016927 48.3564453,10.8164062 C48.1194661,11.2311198 47.7682292,11.6944987 47.3027344,12.206543 C46.8372396,12.7185872 46.1982422,13.2750651 45.3857422,13.8759766 C45.9866536,15.3147786 46.5664062,16.5716146 47.125,17.6464844 C47.6835938,18.7213542 48.2273763,19.648112 48.7563477,20.4267578 C49.285319,21.2054036 49.8015951,21.8486328 50.3051758,22.3564453 C50.8087565,22.8642578 51.3059896,23.2705078 51.796875,23.5751953 C52.2877604,23.8798828 52.7765299,24.0914714 53.2631836,24.2099609 C53.7498372,24.3284505 54.2428385,24.3876953 54.7421875,24.3876953 Z M56.7607422,19.9570312 C57.2093099,19.9570312 57.5668945,19.9083659 57.8334961,19.8110352 C58.1000977,19.7137044 58.3032227,19.5973307 58.4428711,19.4619141 C58.5825195,19.3264974 58.6713867,19.1826172 58.7094727,19.0302734 C58.7475586,18.8779297 58.7666016,18.7467448 58.7666016,18.6367188 L58.7666016,18.6367188 L58.7666016,2.09472656 C58.7666016,1.90852865 58.7517904,1.69482422 58.722168,1.45361328 C58.6925456,1.21240234 58.6057943,0.983886719 58.4619141,0.768066406 C58.3180339,0.552246094 58.09375,0.370279948 57.7890625,0.222167969 C57.484375,0.0740559896 57.0569661,0 56.5068359,0 C56.1513672,0 55.8128255,0.0380859375 55.4912109,0.114257812 C55.1695964,0.190429688 54.8670247,0.287760417 54.5834961,0.40625 C54.2999674,0.524739583 54.0397135,0.662272135 53.8027344,0.818847656 C53.5657552,0.975423177 53.3499349,1.13411458 53.1552734,1.29492188 L53.1552734,1.29492188 L53.4091797,1.59960938 C53.5276693,1.50651042 53.6398112,1.4366862 53.7456055,1.39013672 C53.8513997,1.34358724 53.976237,1.3203125 54.1201172,1.3203125 C54.3909505,1.3203125 54.5834961,1.41129557 54.6977539,1.59326172 C54.8120117,1.77522786 54.8691406,1.98893229 54.8691406,2.234375 L54.8691406,2.234375 L54.8691406,18.6113281 C54.8691406,18.7044271 54.8839518,18.8271484 54.9135742,18.9794922 C54.9431966,19.1318359 55.0193685,19.2799479 55.1420898,19.4238281 C55.2648112,19.5677083 55.453125,19.6925456 55.7070312,19.7983398 C55.9609375,19.9041341 56.3121745,19.9570312 56.7607422,19.9570312 Z M66.9550781,19.9316406 C67.6914062,19.9316406 68.3473307,19.8406576 68.9228516,19.6586914 C69.4983724,19.4767253 70.0019531,19.2482096 70.4335938,18.9731445 C70.8652344,18.6980794 71.2333984,18.4039714 71.5380859,18.0908203 C71.8427734,17.7776693 72.0924479,17.4899089 72.2871094,17.2275391 L72.2871094,17.2275391 L71.9697266,16.9228516 C71.7666016,17.1005859 71.5634766,17.2677409 71.3603516,17.4243164 C71.1572266,17.5808919 70.945638,17.7184245 70.7255859,17.8369141 C70.5055339,17.9554036 70.2685547,18.0485026 70.0146484,18.1162109 C69.7607422,18.1839193 69.4856771,18.2177734 69.1894531,18.2177734 C68.766276,18.2177734 68.3769531,18.1500651 68.0214844,18.0146484 C67.6660156,17.8792318 67.3422852,17.6972656 67.050293,17.46875 C66.7583008,17.2402344 66.5001628,16.9799805 66.2758789,16.6879883 C66.0515951,16.3959961 65.8632812,16.0891927 65.7109375,15.7675781 C65.5585938,15.4459635 65.4422201,15.1264648 65.3618164,14.809082 C65.2814128,14.4916992 65.2412109,14.1975911 65.2412109,13.9267578 L65.2412109,13.9267578 L70.2558594,10.96875 C70.6367188,10.7317708 70.9414062,10.4545898 71.1699219,10.137207 C71.3984375,9.81982422 71.5126953,9.46223958 71.5126953,9.06445312 C71.5126953,8.734375 71.4365234,8.41910807 71.2841797,8.11865234 C71.1318359,7.81819661 70.9012044,7.55371094 70.5922852,7.32519531 C70.2833659,7.09667969 69.8961589,6.91471354 69.4306641,6.77929688 C68.9651693,6.64388021 68.4192708,6.57617188 67.7929688,6.57617188 C67.3190104,6.57617188 66.8260091,6.64176432 66.3139648,6.77294922 C65.8019206,6.90413411 65.3004557,7.09879557 64.8095703,7.35693359 C64.3186849,7.61507161 63.8510742,7.93880208 63.4067383,8.328125 C62.9624023,8.71744792 62.5730794,9.1702474 62.2387695,9.68652344 C61.9044596,10.2027995 61.639974,10.7825521 61.4453125,11.4257812 C61.250651,12.0690104 61.1533203,12.7757161 61.1533203,13.5458984 C61.1533203,14.6123047 61.3162435,15.5432943 61.6420898,16.3388672 C61.9679362,17.1344401 62.4016927,17.7988281 62.9433594,18.3320312 C63.485026,18.8652344 64.1049805,19.2651367 64.8032227,19.5317383 C65.5014648,19.7983398 66.21875,19.9316406 66.9550781,19.9316406 Z M65.1142578,12.8857422 C65.1142578,12.648763 65.1184896,12.3588867 65.1269531,12.0161133 C65.1354167,11.6733398 65.1608073,11.3157552 65.203125,10.9433594 C65.2454427,10.5709635 65.3068034,10.2006836 65.387207,9.83251953 C65.4676107,9.46435547 65.5776367,9.13639323 65.7172852,8.84863281 C65.8569336,8.5608724 66.034668,8.32600911 66.2504883,8.14404297 C66.4663086,7.96207682 66.7265625,7.87109375 67.03125,7.87109375 C67.2682292,7.87109375 67.4713542,7.94726562 67.640625,8.09960938 C67.8098958,8.25195312 67.9495443,8.44238281 68.0595703,8.67089844 C68.1695964,8.89941406 68.2478841,9.14274089 68.2944336,9.40087891 C68.3409831,9.65901693 68.3642578,9.89388021 68.3642578,10.1054688 C68.3642578,10.3001302 68.3536784,10.4630534 68.3325195,10.5942383 C68.3113607,10.7254232 68.2796224,10.8354492 68.2373047,10.9243164 C68.194987,11.0131836 68.1378581,11.0893555 68.065918,11.152832 C67.9939779,11.2163086 67.9029948,11.281901 67.7929688,11.3496094 L67.7929688,11.3496094 L65.1142578,12.8857422 Z M76.1083984,19.9570312 C76.5569661,19.9570312 76.910319,19.9083659 77.168457,19.8110352 C77.4265951,19.7137044 77.6212565,19.5973307 77.7524414,19.4619141 C77.8836263,19.3264974 77.9661458,19.1826172 78,19.0302734 C78.0338542,18.8779297 78.0507812,18.7467448 78.0507812,18.6367188 L78.0507812,18.6367188 L78.0507812,10.3974609 C78.2285156,10.2451172 78.425293,10.0843099 78.6411133,9.91503906 C78.8569336,9.74576823 79.0854492,9.58919271 79.3266602,9.4453125 C79.5678711,9.30143229 79.8154297,9.18082682 80.0693359,9.08349609 C80.3232422,8.98616536 80.5813802,8.9375 80.84375,8.9375 C81.1992188,8.9375 81.4700521,9.0242513 81.65625,9.19775391 C81.8424479,9.37125651 81.9609375,9.58919271 82.0117188,9.8515625 L82.0117188,9.8515625 L82.3671875,9.8515625 C82.5026042,9.47070312 82.5935872,9.14697266 82.6401367,8.88037109 C82.6866862,8.61376953 82.7099609,8.33658854 82.7099609,8.04882812 C82.7099609,7.58333333 82.5872396,7.22151693 82.3417969,6.96337891 C82.0963542,6.70524089 81.7578125,6.57617188 81.3261719,6.57617188 C81.1230469,6.57617188 80.9199219,6.61425781 80.7167969,6.69042969 C80.5136719,6.76660156 80.3168945,6.86816406 80.1264648,6.99511719 C79.9360352,7.12207031 79.7519531,7.26595052 79.5742188,7.42675781 C79.3964844,7.5875651 79.2314453,7.75260417 79.0791016,7.921875 C78.7151693,8.31966146 78.3723958,8.7639974 78.0507812,9.25488281 C78.0507812,9.12792969 78.0465495,8.97347005 78.0380859,8.79150391 C78.0296224,8.60953776 78.0021159,8.41910807 77.9555664,8.22021484 C77.9090169,8.02132161 77.8391927,7.82454427 77.7460938,7.62988281 C77.6529948,7.43522135 77.5239258,7.25960286 77.3588867,7.10302734 C77.1938477,6.94645182 76.9822591,6.8194987 76.7241211,6.72216797 C76.4659831,6.62483724 76.1549479,6.57617188 75.7910156,6.57617188 C75.4355469,6.57617188 75.0970052,6.61425781 74.7753906,6.69042969 C74.453776,6.76660156 74.1533203,6.86393229 73.8740234,6.98242188 C73.5947266,7.10091146 73.3344727,7.23844401 73.0932617,7.39501953 C72.8520508,7.55159505 72.6341146,7.71028646 72.4394531,7.87109375 L72.4394531,7.87109375 L72.7060547,8.18847656 C72.8245443,8.0953776 72.9345703,8.0234375 73.0361328,7.97265625 C73.1376953,7.921875 73.2604167,7.89648438 73.4042969,7.89648438 C73.6751302,7.89648438 73.8676758,7.98746745 73.9819336,8.16943359 C74.0961914,8.35139974 74.1533203,8.56510417 74.1533203,8.81054688 L74.1533203,8.81054688 L74.1533203,18.6113281 C74.1533203,18.7044271 74.1702474,18.8271484 74.2041016,18.9794922 C74.2379557,19.1318359 74.3225911,19.2799479 74.4580078,19.4238281 C74.5934245,19.5677083 74.7902018,19.6925456 75.0483398,19.7983398 C75.3064779,19.9041341 75.6598307,19.9570312 76.1083984,19.9570312 Z" id="Tockler"></path>
            </g>
        </g>
        <g id="tockler_icon_tray-mac" transform="translate(8.000000, 7.000000)" fill="#8363FF">
            <path d="M15.0480502,0.650243966 C22.9940395,0.650243966 29.4458564,7.10206091 29.4458564,15.0480502 C29.4458564,22.9940395 22.9940395,29.4458564 15.0480502,29.4458564 C7.10206091,29.4458564 0.650243966,22.9940395 0.650243966,15.0480502 C0.650243966,7.10206091 7.10206091,0.650243966 15.0480502,0.650243966 Z M15.0480502,1.96274397 C7.82693465,1.96274397 1.96274397,7.82693465 1.96274397,15.0480502 C1.96274397,22.2691657 7.82693465,28.1333564 15.0480502,28.1333564 C22.2691657,28.1333564 28.1333564,22.2691657 28.1333564,15.0480502 C28.1333564,7.82693465 22.2691657,1.96274397 15.0480502,1.96274397 Z" id="border"></path>
            <g id="Group" transform="translate(3.070043, 3.070043)">
                <g id="circle" transform="translate(11.978007, 11.978007) rotate(-40.000000) translate(-11.978007, -11.978007) ">
                    <path d="M23.9560137,11.9780069 C23.9560137,18.5885358 18.5885358,23.9560137 11.9780069,23.9560137 C5.36747797,23.9560137 0,18.5885358 0,11.9780069 C0,9.91663279 0.521929053,7.97613195 1.44072514,6.28156635 L11.974525,11.9532872 L22.5141961,6.27955193 C23.4336709,7.97459403 23.9560137,9.91581592 23.9560137,11.9780069 Z" id="Combined-Shape"></path>
                </g>
            </g>
        </g>
    </g>
</svg>